<svg width="15" height="11" viewBox="0 0 15 11" fill="none" xmlns="http://www.w3.org/2000/svg">
<path d="M9.58333 0.229004C9.38077 0.229004 9.17798 0.307713 9.0236 0.462484L8.95557 0.530518C8.64602 0.840059 8.64602 1.34123 8.95557 1.64998L12.014 4.70842H1.66667C1.22967 4.70842 0.875 5.06308 0.875 5.50008C0.875 5.93708 1.22967 6.29175 1.66667 6.29175H12.014L8.95557 9.35018C8.64602 9.65972 8.64602 10.1609 8.95557 10.4696L9.0236 10.5377C9.33314 10.8472 9.83432 10.8472 10.1431 10.5377L14.6209 6.05981C14.9305 5.75027 14.9305 5.2491 14.6209 4.94035L10.1431 0.462484C9.9883 0.307713 9.7859 0.229004 9.58333 0.229004Z" fill="white"/>
</svg>
