<svg width="15" height="11" viewBox="0 0 15 11" fill="none" xmlns="http://www.w3.org/2000/svg">
<path d="M5.41667 10.771C5.61923 10.771 5.82202 10.6923 5.9764 10.5375L6.04443 10.4695C6.35398 10.1599 6.35398 9.65877 6.04443 9.35002L2.986 6.29158L13.3333 6.29158C13.7703 6.29158 14.125 5.93692 14.125 5.49992C14.125 5.06292 13.7703 4.70825 13.3333 4.70825L2.986 4.70825L6.04443 1.64982C6.35398 1.34028 6.35398 0.839105 6.04443 0.530354L5.9764 0.46232C5.66686 0.152779 5.16568 0.152779 4.85693 0.46232L0.379068 4.94019C0.0695267 5.24973 0.0695267 5.7509 0.379068 6.05965L4.85693 10.5375C5.0117 10.6923 5.2141 10.771 5.41667 10.771Z" fill="white"/>
</svg>
